<svg xmlns="http://www.w3.org/2000/svg" viewBox="0 0 32 32" width="32" height="32">
  <rect width="32" height="32" rx="6" fill="#0E1012"/>
  <circle cx="16" cy="16" r="11" stroke="#E7ECEF" stroke-width="1.8" fill="none"/>
  <circle cx="16" cy="16" r="4.8" stroke="#E7ECEF" stroke-width="1.8" fill="none"/>
  <g fill="#FF6B00">
    <rect x="14.8" y="4.2" width="2.4" height="3.2" rx="0.5"/>
    <rect x="14.8" y="4.2" width="2.4" height="3.2" rx="0.5" transform="rotate(45 16 16)"/>
    <rect x="14.8" y="4.2" width="2.4" height="3.2" rx="0.5" transform="rotate(90 16 16)"/>
    <rect x="14.8" y="4.2" width="2.4" height="3.2" rx="0.5" transform="rotate(135 16 16)"/>
    <rect x="14.8" y="4.2" width="2.4" height="3.2" rx="0.5" transform="rotate(180 16 16)"/>
    <rect x="14.8" y="4.2" width="2.4" height="3.2" rx="0.5" transform="rotate(225 16 16)"/>
    <rect x="14.8" y="4.2" width="2.4" height="3.2" rx="0.5" transform="rotate(270 16 16)"/>
    <rect x="14.8" y="4.2" width="2.4" height="3.2" rx="0.5" transform="rotate(315 16 16)"/>
  </g>
</svg>
